<svg width="121" height="54" viewBox="0 0 121 54" fill="none" xmlns="http://www.w3.org/2000/svg">
<g clip-path="url(#clip0_6_1291)">
<path d="M44.2303 30.7225C44.2303 31.8707 43.217 32.5453 41.5291 32.5453C39.4256 32.4786 37.4147 31.6648 35.8569 30.2498L35.789 30.3177V30.2498C34.3039 31.5999 32.9528 32.4783 30.7923 32.4783C27.5514 32.4783 25.3229 29.7771 25.3229 26.5362V26.4683C25.3229 23.2274 27.6184 20.5942 30.7923 20.5942C32.021 20.6102 33.2182 20.9858 34.236 21.6745C34.1772 21.963 34.1544 22.2577 34.1681 22.5519V22.6198C34.1681 26.4013 36.5985 27.4137 40.4479 28.4278C43.6191 29.1695 44.2303 29.7092 44.2303 30.7225ZM53.6124 -0.000213623V53.6124H-0.00012207V-0.000213623H53.6124ZM48.3459 30.3847C48.3459 27.0786 46.1853 25.7258 42.3368 24.7125C39.096 23.9021 38.2855 23.4973 38.2855 22.2106V22.1427C38.2855 21.1973 39.096 20.5218 40.7159 20.5218C42.5121 20.6397 44.2305 21.2989 45.6447 22.4125L47.8044 19.311C45.818 17.7081 43.3344 16.8485 40.7821 16.8806C39.1865 16.8059 37.6136 17.2816 36.3269 18.2281C34.6453 17.256 32.7287 16.7655 30.7869 16.81C28.3877 16.7679 26.0567 17.6091 24.2372 19.1734V17.1504H20.118V28.7665L11.3479 17.0825H7.49492V35.989H11.6159V23.97L20.7971 35.989H24.3042V34.0313C26.069 35.5433 28.3247 36.3595 30.6484 36.3268C32.5188 36.3938 34.3695 35.9254 35.9828 34.9766C37.6792 35.8376 39.558 36.2774 41.4603 36.2589C45.5116 36.2589 48.4147 34.1653 48.3477 30.3847H48.3459ZM63.1331 0.945155H61.2424V52.667H63.1331V0.945155ZM71.1679 3.30589H69.7498V13.9748H71.1679V7.02214L72.7209 11.8839V13.9775H74.1389V3.30589H72.7209V8.44019L71.1679 3.30589ZM77.9874 13.9748V3.30589H76.5703V13.9748H77.9874ZM83.7266 8.43483C84.0102 8.40919 84.2732 8.27588 84.4615 8.06232C84.6498 7.84876 84.7491 7.57117 84.739 7.28663V5.26633C84.739 3.9832 84.1314 3.30858 82.8483 3.30858H80.4187V13.9775H83.3219C83.5081 14.0045 83.6979 13.9945 83.8803 13.948C84.0627 13.9015 84.2341 13.8194 84.3847 13.7065C84.5353 13.5936 84.6621 13.4521 84.7579 13.29C84.8536 13.128 84.9165 12.9486 84.9427 12.7623V9.65541C84.9427 9.0478 84.538 8.64213 83.7945 8.44019H83.7248L83.7266 8.43483ZM81.8368 4.5917H82.7142C83.119 4.5917 83.3219 4.85977 83.3219 5.33424V7.02214C83.3219 7.55826 83.0538 7.76467 82.5114 7.76467H81.8359L81.8368 4.5917ZM81.8368 9.11571H82.6472C83.1834 9.11571 83.5247 9.38377 83.5247 9.85824V12.2217C83.5247 12.5594 83.3219 12.6943 82.9886 12.6943H81.9038V9.11392L81.8368 9.11571ZM90.547 8.44019C90.8308 8.41476 91.094 8.28155 91.2824 8.06796C91.4709 7.85438 91.5704 7.57667 91.5603 7.29199V5.26633C91.5603 3.9832 90.9527 3.30858 89.6696 3.30858H87.2392V13.9775H90.1423C90.3285 14.0045 90.5183 13.9945 90.7007 13.948C90.8831 13.9015 91.0545 13.8194 91.2051 13.7065C91.3557 13.5936 91.4825 13.4521 91.5783 13.29C91.674 13.128 91.7369 12.9486 91.7632 12.7623V9.65541C91.7632 9.0478 91.3584 8.64213 90.615 8.44019H90.547ZM88.6563 4.65872H89.5338C89.9385 4.65872 90.1414 4.92678 90.1414 5.40125V7.09005C90.1414 7.62617 89.8733 7.83258 89.3309 7.83258H88.6554L88.6563 4.65872ZM88.6563 9.11482H89.4668C90.0029 9.11482 90.3442 9.38288 90.3442 9.85735V12.2208C90.3442 12.5585 90.1414 12.6935 89.8081 12.6935H88.7242V9.11392L88.6563 9.11482ZM97.4345 12.6935H95.4767V3.30589H94.0587V13.9748H97.4345V12.6935ZM102.904 13.9766V12.6943H100.81V9.11392H102.633V7.83258H100.742V4.5917H102.836V3.30589H99.3252V13.9748L102.904 13.9766ZM72.5859 29.308V29.9156C72.5859 30.3204 72.3831 30.5232 72.0498 30.5232H71.7121C71.3073 30.5232 71.1759 30.3204 71.1759 29.9156V23.0925C71.1759 22.6877 71.3788 22.4849 71.7121 22.4849H71.9801C72.0523 22.4635 72.1285 22.4597 72.2024 22.4737C72.2764 22.4876 72.3459 22.519 72.4053 22.5652C72.4647 22.6114 72.5122 22.6711 72.5439 22.7393C72.5757 22.8076 72.5907 22.8824 72.5877 22.9576V24.1728H74.0058V22.9576C74.0058 21.7424 73.4697 21.1348 72.3179 21.1348H71.3707C70.2225 21.1348 69.6828 21.7424 69.6828 22.9576V29.9799C69.6828 31.1951 70.2189 31.8028 71.3707 31.8028H72.2482C73.3964 31.8028 73.9361 31.1951 73.9361 29.9799V29.308H72.5859ZM79.2035 31.8099C79.4468 31.8381 79.6933 31.8097 79.9238 31.727C80.1544 31.6443 80.3627 31.5095 80.5326 31.3331C80.7025 31.1567 80.8294 30.9435 80.9034 30.71C80.9774 30.4765 80.9966 30.2291 80.9593 29.9871V22.9576C80.9593 21.7424 80.4232 21.1348 79.2714 21.1348H77.9168C76.7686 21.1348 76.2289 21.7424 76.2289 22.9576V29.9799C76.2289 31.1951 76.765 31.8028 77.9847 31.8028L79.2035 31.8099ZM77.5826 29.9192V23.0925C77.5726 23.0214 77.577 22.949 77.5955 22.8796C77.614 22.8103 77.6463 22.7453 77.6904 22.6887C77.7345 22.632 77.7895 22.5848 77.8522 22.5497C77.9149 22.5147 77.9839 22.4927 78.0553 22.4849H78.8658C78.9379 22.4635 79.0141 22.4597 79.0881 22.4737C79.162 22.4876 79.2316 22.519 79.2909 22.5652C79.3503 22.6114 79.3979 22.6711 79.4296 22.7393C79.4613 22.8076 79.4763 22.8824 79.4734 22.9576V29.912C79.4734 30.3168 79.2705 30.5196 78.9372 30.5196H78.1947C78.119 30.5368 78.0405 30.538 77.9643 30.5231C77.8881 30.5081 77.8159 30.4774 77.7523 30.4329C77.6887 30.3884 77.6351 30.331 77.5949 30.2646C77.5548 30.1981 77.529 30.124 77.5192 30.0469C77.5871 30.0469 77.5871 29.979 77.5871 29.912L77.5826 29.9192ZM84.8748 21.141H83.3219V31.8099H84.7399L84.605 24.8555L85.6853 29.9201H86.7629L87.7762 24.8555L87.6412 31.8099H89.0593V21.1339H87.509L86.158 27.4137L84.8748 21.141ZM91.5594 31.8099H92.9775V27.9543H94.1927C95.3409 27.9543 95.8806 27.3467 95.8806 26.1314V22.9576C95.8806 21.7424 95.3445 21.1348 94.1248 21.1348H91.4915L91.5594 31.8099ZM92.9775 22.4277H93.7879C93.8601 22.4064 93.9363 22.4025 94.0102 22.4165C94.0842 22.4304 94.1537 22.4618 94.2131 22.508C94.2725 22.5542 94.32 22.6139 94.3518 22.6822C94.3835 22.7504 94.3985 22.8252 94.3955 22.9004V26.0063C94.3955 26.4111 94.1927 26.614 93.8594 26.614H92.9819V22.417L92.9775 22.4277ZM101.283 21.1446V29.7878C101.283 30.2605 101.08 30.4633 100.675 30.4633H100.068C99.663 30.4633 99.4601 30.2605 99.4601 29.7878V21.1339H98.0421V29.7771C98.0421 31.1272 98.5782 31.8028 99.73 31.8028H100.945C102.093 31.8028 102.701 31.1272 102.701 29.7771V21.1339L101.283 21.1446ZM108.778 22.4277V21.1339H104.659V22.417H106.009V31.7992H107.427V22.417L108.778 22.4277ZM114.247 31.8099V30.5196H112.154V27.0089H114.045V25.6579H112.154V22.417H114.247V21.1339H110.737V31.8028L114.247 31.8099ZM116.408 31.8099H117.826V27.4816H118.703L119.649 31.8028H120.999L119.987 27.3422C120.594 27.0741 120.864 26.5317 120.864 25.5864V22.9576C120.864 21.7424 120.324 21.1348 119.243 21.1348H116.473L116.408 31.8099ZM117.826 22.4277H118.771C119.176 22.4277 119.379 22.6958 119.379 23.1702V25.4658C119.379 26.0019 119.176 26.2083 118.771 26.2083H117.826V22.4277ZM73.8691 41.8632V40.7829C73.8691 39.5676 73.3329 38.96 72.1812 38.96H71.3046C70.1564 38.96 69.6167 39.5676 69.6167 40.7829V42.9435C69.6058 43.1707 69.6286 43.3984 69.6846 43.619C69.7525 43.7539 69.8195 43.9567 69.9527 44.0237C70.1686 44.1735 70.3943 44.3087 70.6282 44.4285L71.9783 45.1711C72.1133 45.239 72.2464 45.3739 72.3831 45.4391C72.4579 45.5622 72.504 45.7005 72.518 45.8439V47.6667C72.518 48.0715 72.3152 48.2743 71.9819 48.2743H71.7138C71.6417 48.2957 71.5655 48.2995 71.4915 48.2856C71.4176 48.2716 71.3481 48.2402 71.2887 48.194C71.2293 48.1478 71.1817 48.0881 71.15 48.0199C71.1183 47.9516 71.1033 47.8768 71.1062 47.8016V47.0627H69.5479V47.5988C69.5479 48.8819 70.084 49.5566 71.2358 49.5566H72.1133C72.3565 49.5847 72.6031 49.5563 72.8336 49.4736C73.0641 49.3909 73.2724 49.2561 73.4423 49.0797C73.6122 48.9033 73.7391 48.6901 73.8132 48.4566C73.8872 48.2232 73.9063 47.9758 73.8691 47.7337V45.5097C73.8961 45.2544 73.8493 44.9967 73.7341 44.7672C73.6618 44.642 73.5715 44.5282 73.4661 44.4294L72.8585 44.0246L71.5083 43.2821C71.3734 43.2142 71.2403 43.0793 71.1036 43.014C71.0288 42.8909 70.9827 42.7526 70.9686 42.6093V40.8508C70.9686 40.446 71.1715 40.1753 71.5762 40.1753H71.7791C71.8508 40.1603 71.9249 40.1611 71.9962 40.1776C72.0676 40.1941 72.1345 40.226 72.1923 40.271C72.2501 40.3159 72.2974 40.373 72.331 40.438C72.3646 40.5031 72.3836 40.5748 72.3867 40.6479V41.8632H73.8691ZM79.1356 49.696C79.3789 49.7241 79.6254 49.6957 79.8559 49.613C80.0865 49.5303 80.2948 49.3955 80.4647 49.2191C80.6346 49.0427 80.7615 48.8295 80.8355 48.596C80.9095 48.3626 80.9287 48.1152 80.8914 47.8731V40.7829C80.8914 39.5676 80.3553 38.96 79.2035 38.96H77.8525C76.7043 38.96 76.1646 39.5676 76.1646 40.7829V47.8043C76.1273 48.0464 76.1465 48.2938 76.2205 48.5272C76.2945 48.7607 76.4214 48.9739 76.5913 49.1503C76.7612 49.3267 76.9696 49.4615 77.2001 49.5442C77.4306 49.6269 77.6771 49.6553 77.9204 49.6271L79.1356 49.696ZM77.5147 47.7382V40.9178C77.5047 40.8467 77.5091 40.7743 77.5276 40.7049C77.5461 40.6356 77.5784 40.5706 77.6225 40.5139C77.6666 40.4573 77.7216 40.41 77.7843 40.375C77.847 40.34 77.916 40.318 77.9874 40.3102H78.7979C78.87 40.2888 78.9462 40.285 79.0201 40.2989C79.0941 40.3129 79.1636 40.3443 79.223 40.3905C79.2824 40.4367 79.33 40.4964 79.3617 40.5646C79.3934 40.6329 79.4084 40.7077 79.4055 40.7829V47.7373C79.4055 48.1421 79.2026 48.3449 78.8693 48.3449H78.1268C78.0546 48.3663 77.9784 48.3701 77.9045 48.3562C77.8306 48.3422 77.761 48.3108 77.7016 48.2646C77.6422 48.2184 77.5947 48.1587 77.563 48.0905C77.5312 48.0222 77.5162 47.9474 77.5192 47.8722C77.5192 47.8043 77.5192 47.8043 77.5192 47.7373L77.5147 47.7382ZM86.0927 47.2021V47.8097C86.0927 48.2145 85.8899 48.4173 85.5566 48.4173H85.2188C84.8141 48.4173 84.6827 48.2145 84.6827 47.8097V40.9178C84.6827 40.513 84.8856 40.3102 85.2188 40.3102H85.4869C85.5591 40.2888 85.6353 40.285 85.7092 40.2989C85.7831 40.3129 85.8527 40.3443 85.9121 40.3905C85.9715 40.4367 86.019 40.4964 86.0507 40.5646C86.0825 40.6329 86.0975 40.7077 86.0945 40.7829V41.9963H87.5126V40.7811C87.5126 39.5659 86.9764 38.9582 85.8247 38.9582H84.8748C83.7266 38.9582 83.1869 39.5659 83.1869 40.7811V47.8043C83.1869 49.0195 83.7231 49.6271 84.8748 49.6271H85.8202C86.9684 49.6271 87.5081 49.0195 87.5081 47.8043V47.1288L86.0927 47.2021ZM91.1573 49.704V38.9582H89.7393V49.6271L91.1573 49.704ZM97.1664 49.704V48.4128H95.0728V44.8342H96.9636V43.552H95.0728V40.3102H97.1664V39.0279H93.6557V49.6968L97.1664 49.704ZM102.974 40.3218V38.9582H98.7882V40.2414H100.138V49.6236H101.556V40.2414L102.974 40.3218ZM107.566 45.7233L109.322 38.9708H107.904L106.957 43.619H106.889L105.807 38.9582H104.389L106.145 45.7108V49.6271H107.563L107.566 45.7233Z" fill="white"/>
</g>
<defs>
<clipPath id="clip0_6_1291">
<rect width="121" height="53.6126" fill="white"/>
</clipPath>
</defs>
</svg>
